<mxfile host="www.draw.io" modified="2020-01-27T23:34:15.554Z" agent="Mozilla/5.0 (Windows NT 10.0; Win64; x64) AppleWebKit/537.36 (KHTML, like Gecko) Chrome/79.0.3945.130 Safari/537.36" etag="PyoEgRFkkIRtHOJGKn0v" version="12.5.8" type="github">
  <diagram id="BPihYGrWCZKnKPI-CVZP" name="Page-1">
    <mxGraphModel dx="1264" dy="533" grid="1" gridSize="10" guides="1" tooltips="1" connect="1" arrows="1" fold="1" page="1" pageScale="1" pageWidth="827" pageHeight="1169" math="0" shadow="0">
      <root>
        <mxCell id="0"/>
        <mxCell id="1" parent="0"/>
        <mxCell id="tznQekXJcfeE-7tTwur6-1" value="" style="ellipse;html=1;shape=startState;fillColor=#000000;strokeColor=#ff0000;" vertex="1" parent="1">
          <mxGeometry x="300" y="140" width="30" height="30" as="geometry"/>
        </mxCell>
        <mxCell id="tznQekXJcfeE-7tTwur6-2" value="" style="edgeStyle=orthogonalEdgeStyle;html=1;verticalAlign=bottom;endArrow=open;endSize=8;strokeColor=#ff0000;" edge="1" source="tznQekXJcfeE-7tTwur6-1" parent="1">
          <mxGeometry relative="1" as="geometry">
            <mxPoint x="315" y="230" as="targetPoint"/>
          </mxGeometry>
        </mxCell>
        <mxCell id="tznQekXJcfeE-7tTwur6-3" value="msg error&amp;nbsp;" style="rounded=1;whiteSpace=wrap;html=1;arcSize=40;fontColor=#000000;fillColor=#ffffc0;strokeColor=#ff0000;" vertex="1" parent="1">
          <mxGeometry x="255" y="230" width="120" height="40" as="geometry"/>
        </mxCell>
        <mxCell id="tznQekXJcfeE-7tTwur6-4" value="" style="edgeStyle=orthogonalEdgeStyle;html=1;verticalAlign=bottom;endArrow=open;endSize=8;strokeColor=#ff0000;" edge="1" source="tznQekXJcfeE-7tTwur6-3" parent="1">
          <mxGeometry relative="1" as="geometry">
            <mxPoint x="315" y="330" as="targetPoint"/>
          </mxGeometry>
        </mxCell>
        <mxCell id="tznQekXJcfeE-7tTwur6-5" value="click on ok" style="rounded=1;whiteSpace=wrap;html=1;arcSize=40;fontColor=#000000;fillColor=#ffffc0;strokeColor=#ff0000;" vertex="1" parent="1">
          <mxGeometry x="255" y="330" width="120" height="40" as="geometry"/>
        </mxCell>
        <mxCell id="tznQekXJcfeE-7tTwur6-6" value="" style="edgeStyle=orthogonalEdgeStyle;html=1;verticalAlign=bottom;endArrow=open;endSize=8;strokeColor=#ff0000;" edge="1" source="tznQekXJcfeE-7tTwur6-5" parent="1">
          <mxGeometry relative="1" as="geometry">
            <mxPoint x="315" y="430" as="targetPoint"/>
          </mxGeometry>
        </mxCell>
        <mxCell id="tznQekXJcfeE-7tTwur6-7" value="save error" style="rounded=1;whiteSpace=wrap;html=1;arcSize=40;fontColor=#000000;fillColor=#ffffc0;strokeColor=#ff0000;" vertex="1" parent="1">
          <mxGeometry x="255" y="430" width="120" height="40" as="geometry"/>
        </mxCell>
        <mxCell id="tznQekXJcfeE-7tTwur6-8" value="" style="edgeStyle=orthogonalEdgeStyle;html=1;verticalAlign=bottom;endArrow=open;endSize=8;strokeColor=#ff0000;" edge="1" source="tznQekXJcfeE-7tTwur6-7" parent="1">
          <mxGeometry relative="1" as="geometry">
            <mxPoint x="315" y="530" as="targetPoint"/>
          </mxGeometry>
        </mxCell>
        <mxCell id="tznQekXJcfeE-7tTwur6-9" value="" style="ellipse;html=1;shape=endState;fillColor=#000000;strokeColor=#ff0000;" vertex="1" parent="1">
          <mxGeometry x="300" y="530" width="30" height="30" as="geometry"/>
        </mxCell>
      </root>
    </mxGraphModel>
  </diagram>
</mxfile>
